name C:\Users\tom_v\MusculoskeletalSpecialization_revisited\Results\Case_19\motion.mot
datacolumns 32
datarows 8
range 0.14005341 0.17926837
endheader 
time	pelvis_tilt	pelvis_list	pelvis_rotation	pelvis_tx	pelvis_ty	pelvis_tz	hip_flexion_r	hip_adduction_r	hip_rotation_r	knee_angle_r	ankle_angle_r	subtalar_angle_r	mtp_angle_r	hip_flexion_l	hip_adduction_l	hip_rotation_l	knee_angle_l	ankle_angle_l	subtalar_angle_l	mtp_angle_l	lumbar_extension	lumbar_bending	lumbar_rotation	arm_flex_r	arm_add_r	arm_rot_r	elbow_flex_r	arm_flex_l	arm_add_l	arm_rot_l	elbow_flex_l	
          0.14005341	        -11.92326531	          2.09824898	          0.50682620	          0.45361900	          0.89593326	          0.00555339	         11.71724980	          3.67700379	          7.16851753	        -37.10119267	         10.37797485	         -2.46466442	         45.26014578	         41.21750510	          2.85564298	         -3.26989831	        -75.50811852	          9.68466550	          2.98953356	          2.73559570	         -1.60663751	         -2.27578810	          2.63934287	         16.78215570	          0.38739567	         14.56784297	          0.53273917	         -8.15161460	         -6.47831050	         -0.15439181	         73.13268334	
          0.14565555	        -11.95955352	          2.32986972	          0.49147849	          0.47224199	          0.89786767	          0.00550130	         10.16738469	          3.14263512	          6.87702697	        -36.07630749	          8.92810968	         -1.71128778	         46.78212794	         42.41589278	          3.15344021	         -3.38091283	        -74.58506531	          9.78598831	          2.52017513	          2.53657232	         -1.61973388	         -2.67579283	          2.87068121	         16.82696642	          0.43008995	         14.41096568	          0.25329817	         -8.69378925	         -6.52833408	         -0.40653062	         74.84806274	
          0.15125769	        -11.99272340	          2.54157361	          0.47975821	          0.49094416	          0.89970089	          0.00543319	          8.65950496	          2.63145849	          6.58857089	        -35.13501890	          7.50370174	         -0.87886939	         47.93487261	         43.54008060	          3.43278572	         -3.45371852	        -73.51070276	          9.76665411	          2.07280526	          2.35319270	         -1.62507897	         -3.05340546	          3.09341887	         16.81889194	          0.44879437	         14.31864519	          0.09126176	         -9.18623085	         -6.57115680	         -0.62331334	         76.39901666	
          0.15685982	        -12.02255715	          2.73181591	          0.47125199	          0.50970946	          0.90141742	          0.00535342	          7.21559777	          2.14968045	          6.30971076	        -34.31492545	          6.09187250	          0.01220066	         48.72803646	         44.58976990	          3.69287423	         -3.48632016	        -72.29329840	          9.62648086	          1.64363898	          2.18274642	         -1.62445587	         -3.40667468	          3.30574364	         16.77090390	          0.44959299	         14.29963804	          0.01578110	         -9.62766191	         -6.60778810	         -0.80682749	         77.78484970	
          0.16246196	        -12.04888547	          2.90027058	          0.46580959	          0.52852926	          0.90300578	          0.00526283	          5.84696432	          1.69833318	          6.04081616	        -33.62859991	          4.66836797	          0.94603140	         49.21507316	         45.56469713	          3.93473563	         -3.47667008	        -70.94320123	          9.37123098	          1.22999364	          2.02371851	         -1.61886888	         -3.73487926	          3.50690213	         16.69317745	          0.43723635	         14.35683848	          0.00000260	        -10.01685390	         -6.63902141	         -0.95750938	         79.00375873	
          0.16806410	        -12.07155817	          3.04654059	          0.46324031	          0.54739839	          0.90445614	          0.00516164	          4.55862984	          1.27724939	          5.78042090	        -33.07789694	          3.22206222	          1.91285142	         49.42900846	         46.46416746	          4.15851907	         -3.42465403	        -69.46988218	          9.00789442	          0.83002555	          1.87533302	         -1.60907249	         -4.03709513	          3.69622751	         16.59428391	          0.41569390	         14.48840633	          0.02084803	        -10.35320248	         -6.66555194	         -1.07540590	         80.05429689	
          0.17366623	        -12.09065082	          3.17018460	          0.46257097	          0.56631072	          0.90576146	          0.00504971	          3.35278753	          0.88608663	          5.52985328	        -32.65768918	          1.74392887	          2.90396488	         49.39649221	         47.28524597	          4.36411050	         -3.33063873	        -67.87768025	          8.54650649	          0.44205661	          1.73667078	         -1.59629548	         -4.31197013	          3.87308097	         16.48183808	          0.38811153	         14.68878522	          0.05998124	        -10.63660228	         -6.68772655	         -1.16087346	         80.93555313	
          0.17926837	        -12.10618837	          3.27106949	          0.46262735	          0.58526358	          0.90691814	          0.00492809	          2.22959217	          0.52437955	          5.29015106	        -32.36011641	          0.22524907	          3.90927665	         49.13845123	         48.02006094	          4.55118754	         -3.19597420	        -66.16255694	          8.00006792	          0.06460612	          1.60747151	         -1.58146283	         -4.55855712	          4.03612232	         16.36178707	          0.35739208	         14.94982306	          0.10378767	        -10.86792484	         -6.70599391	         -1.21479810	         81.64662770	
